<mxfile host="Electron" modified="2023-09-22T02:53:01.557Z" agent="Mozilla/5.0 (Windows NT 10.0; Win64; x64) AppleWebKit/537.36 (KHTML, like Gecko) draw.io/21.7.5 Chrome/114.0.5735.289 Electron/25.8.1 Safari/537.36" etag="D6-ssLGIrgMlFwiUgTQ9" version="21.7.5" type="device">
  <diagram name="第 1 页" id="MRwjiBiuFgLlpa2z02__">
    <mxGraphModel dx="1421" dy="815" grid="1" gridSize="10" guides="1" tooltips="1" connect="1" arrows="1" fold="1" page="1" pageScale="1" pageWidth="827" pageHeight="1169" math="0" shadow="0">
      <root>
        <mxCell id="0" />
        <mxCell id="1" parent="0" />
        <mxCell id="eaeX9_OGXIEofIeABzlW-8" style="edgeStyle=orthogonalEdgeStyle;rounded=0;orthogonalLoop=1;jettySize=auto;html=1;exitX=0.5;exitY=1;exitDx=0;exitDy=0;entryX=0.5;entryY=0;entryDx=0;entryDy=0;" parent="1" source="eaeX9_OGXIEofIeABzlW-1" target="eaeX9_OGXIEofIeABzlW-2" edge="1">
          <mxGeometry relative="1" as="geometry" />
        </mxCell>
        <mxCell id="eaeX9_OGXIEofIeABzlW-1" value="Input Assembler" style="rounded=1;whiteSpace=wrap;html=1;fillColor=#fff2cc;strokeColor=#d6b656;" parent="1" vertex="1">
          <mxGeometry x="20" y="360" width="190" height="60" as="geometry" />
        </mxCell>
        <mxCell id="eaeX9_OGXIEofIeABzlW-9" style="edgeStyle=orthogonalEdgeStyle;rounded=0;orthogonalLoop=1;jettySize=auto;html=1;exitX=0.5;exitY=1;exitDx=0;exitDy=0;entryX=0.5;entryY=0;entryDx=0;entryDy=0;" parent="1" source="eaeX9_OGXIEofIeABzlW-2" target="eaeX9_OGXIEofIeABzlW-3" edge="1">
          <mxGeometry relative="1" as="geometry" />
        </mxCell>
        <mxCell id="eaeX9_OGXIEofIeABzlW-2" value="Vertex Shader" style="rounded=1;whiteSpace=wrap;html=1;fillColor=#dae8fc;strokeColor=#6c8ebf;" parent="1" vertex="1">
          <mxGeometry x="20" y="460" width="190" height="60" as="geometry" />
        </mxCell>
        <mxCell id="eaeX9_OGXIEofIeABzlW-10" style="edgeStyle=orthogonalEdgeStyle;rounded=0;orthogonalLoop=1;jettySize=auto;html=1;exitX=0.5;exitY=1;exitDx=0;exitDy=0;entryX=0.5;entryY=0;entryDx=0;entryDy=0;" parent="1" source="eaeX9_OGXIEofIeABzlW-3" target="eaeX9_OGXIEofIeABzlW-4" edge="1">
          <mxGeometry relative="1" as="geometry" />
        </mxCell>
        <mxCell id="eaeX9_OGXIEofIeABzlW-3" value="Rasterizer" style="rounded=1;whiteSpace=wrap;html=1;fillColor=#fff2cc;strokeColor=#d6b656;" parent="1" vertex="1">
          <mxGeometry x="20" y="560" width="190" height="60" as="geometry" />
        </mxCell>
        <mxCell id="eaeX9_OGXIEofIeABzlW-11" style="edgeStyle=orthogonalEdgeStyle;rounded=0;orthogonalLoop=1;jettySize=auto;html=1;exitX=0.5;exitY=1;exitDx=0;exitDy=0;entryX=0.5;entryY=0;entryDx=0;entryDy=0;" parent="1" source="eaeX9_OGXIEofIeABzlW-4" target="eaeX9_OGXIEofIeABzlW-5" edge="1">
          <mxGeometry relative="1" as="geometry" />
        </mxCell>
        <mxCell id="eaeX9_OGXIEofIeABzlW-4" value="Pixel Shader" style="rounded=1;whiteSpace=wrap;html=1;fillColor=#dae8fc;strokeColor=#6c8ebf;" parent="1" vertex="1">
          <mxGeometry x="20" y="660" width="190" height="60" as="geometry" />
        </mxCell>
        <mxCell id="eaeX9_OGXIEofIeABzlW-12" style="edgeStyle=orthogonalEdgeStyle;rounded=0;orthogonalLoop=1;jettySize=auto;html=1;exitX=0.5;exitY=1;exitDx=0;exitDy=0;entryX=0.5;entryY=0;entryDx=0;entryDy=0;" parent="1" source="eaeX9_OGXIEofIeABzlW-5" target="eaeX9_OGXIEofIeABzlW-6" edge="1">
          <mxGeometry relative="1" as="geometry" />
        </mxCell>
        <mxCell id="eaeX9_OGXIEofIeABzlW-5" value="Depth Stencil Testing" style="rounded=1;whiteSpace=wrap;html=1;fillColor=#fff2cc;strokeColor=#d6b656;" parent="1" vertex="1">
          <mxGeometry x="20" y="760" width="190" height="60" as="geometry" />
        </mxCell>
        <mxCell id="eaeX9_OGXIEofIeABzlW-6" value="Color Blending" style="rounded=1;whiteSpace=wrap;html=1;fillColor=#fff2cc;strokeColor=#d6b656;" parent="1" vertex="1">
          <mxGeometry x="20" y="860" width="190" height="60" as="geometry" />
        </mxCell>
        <mxCell id="eaeX9_OGXIEofIeABzlW-16" value="Compute Shader" style="rounded=1;whiteSpace=wrap;html=1;fillColor=#dae8fc;strokeColor=#6c8ebf;" parent="1" vertex="1">
          <mxGeometry x="510" y="555" width="190" height="60" as="geometry" />
        </mxCell>
        <mxCell id="eaeX9_OGXIEofIeABzlW-17" value="" style="endArrow=classic;html=1;rounded=0;entryX=0.5;entryY=0;entryDx=0;entryDy=0;exitX=0.5;exitY=1;exitDx=0;exitDy=0;" parent="1" source="eaeX9_OGXIEofIeABzlW-31" target="eaeX9_OGXIEofIeABzlW-1" edge="1">
          <mxGeometry width="50" height="50" relative="1" as="geometry">
            <mxPoint x="115" y="320" as="sourcePoint" />
            <mxPoint x="420" y="550" as="targetPoint" />
          </mxGeometry>
        </mxCell>
        <mxCell id="eaeX9_OGXIEofIeABzlW-20" value="" style="endArrow=classic;html=1;rounded=0;entryX=0.5;entryY=0;entryDx=0;entryDy=0;exitX=0.5;exitY=1;exitDx=0;exitDy=0;" parent="1" source="eaeX9_OGXIEofIeABzlW-32" target="eaeX9_OGXIEofIeABzlW-16" edge="1">
          <mxGeometry width="50" height="50" relative="1" as="geometry">
            <mxPoint x="605" y="320" as="sourcePoint" />
            <mxPoint x="410" y="550" as="targetPoint" />
          </mxGeometry>
        </mxCell>
        <mxCell id="eaeX9_OGXIEofIeABzlW-28" style="edgeStyle=orthogonalEdgeStyle;rounded=0;orthogonalLoop=1;jettySize=auto;html=1;exitX=0;exitY=0.5;exitDx=0;exitDy=0;entryX=1;entryY=0.5;entryDx=0;entryDy=0;" parent="1" source="eaeX9_OGXIEofIeABzlW-21" target="eaeX9_OGXIEofIeABzlW-2" edge="1">
          <mxGeometry relative="1" as="geometry" />
        </mxCell>
        <mxCell id="eaeX9_OGXIEofIeABzlW-29" style="edgeStyle=orthogonalEdgeStyle;rounded=0;orthogonalLoop=1;jettySize=auto;html=1;exitX=0;exitY=0.5;exitDx=0;exitDy=0;entryX=1;entryY=0.5;entryDx=0;entryDy=0;startArrow=classic;startFill=1;" parent="1" source="eaeX9_OGXIEofIeABzlW-21" target="eaeX9_OGXIEofIeABzlW-4" edge="1">
          <mxGeometry relative="1" as="geometry" />
        </mxCell>
        <mxCell id="eaeX9_OGXIEofIeABzlW-21" value="" style="rounded=0;whiteSpace=wrap;html=1;fillColor=none;dashed=1;" parent="1" vertex="1">
          <mxGeometry x="260" y="430" width="200" height="310" as="geometry" />
        </mxCell>
        <mxCell id="eaeX9_OGXIEofIeABzlW-22" value="Descriptor Sets" style="text;html=1;align=center;verticalAlign=middle;resizable=0;points=[];autosize=1;strokeColor=none;fillColor=none;fontSize=14;" parent="1" vertex="1">
          <mxGeometry x="300" y="440" width="120" height="30" as="geometry" />
        </mxCell>
        <mxCell id="eaeX9_OGXIEofIeABzlW-23" value="Uniform Buffer" style="rounded=0;whiteSpace=wrap;html=1;fillColor=#d5e8d4;strokeColor=#82b366;" parent="1" vertex="1">
          <mxGeometry x="270" y="480" width="180" height="30" as="geometry" />
        </mxCell>
        <mxCell id="eaeX9_OGXIEofIeABzlW-26" style="edgeStyle=orthogonalEdgeStyle;rounded=0;orthogonalLoop=1;jettySize=auto;html=1;exitX=0;exitY=0.5;exitDx=0;exitDy=0;entryX=1;entryY=0.5;entryDx=0;entryDy=0;" parent="1" source="eaeX9_OGXIEofIeABzlW-24" target="eaeX9_OGXIEofIeABzlW-1" edge="1">
          <mxGeometry relative="1" as="geometry" />
        </mxCell>
        <mxCell id="eaeX9_OGXIEofIeABzlW-24" value="Vertex Buffers" style="rounded=0;whiteSpace=wrap;html=1;fillColor=#d5e8d4;strokeColor=#82b366;" parent="1" vertex="1">
          <mxGeometry x="260" y="350" width="200" height="30" as="geometry" />
        </mxCell>
        <mxCell id="eaeX9_OGXIEofIeABzlW-27" style="edgeStyle=orthogonalEdgeStyle;rounded=0;orthogonalLoop=1;jettySize=auto;html=1;exitX=0;exitY=0.5;exitDx=0;exitDy=0;entryX=1;entryY=0.5;entryDx=0;entryDy=0;" parent="1" source="eaeX9_OGXIEofIeABzlW-25" target="eaeX9_OGXIEofIeABzlW-1" edge="1">
          <mxGeometry relative="1" as="geometry" />
        </mxCell>
        <mxCell id="eaeX9_OGXIEofIeABzlW-25" value="Index Buffer" style="rounded=0;whiteSpace=wrap;html=1;fillColor=#d5e8d4;strokeColor=#82b366;" parent="1" vertex="1">
          <mxGeometry x="260" y="390" width="200" height="30" as="geometry" />
        </mxCell>
        <mxCell id="eaeX9_OGXIEofIeABzlW-31" value="Draw" style="rounded=1;whiteSpace=wrap;html=1;fillColor=#fff2cc;strokeColor=#d6b656;" parent="1" vertex="1">
          <mxGeometry x="20" y="260" width="190" height="60" as="geometry" />
        </mxCell>
        <mxCell id="eaeX9_OGXIEofIeABzlW-32" value="Dispatch" style="rounded=1;whiteSpace=wrap;html=1;fillColor=#fff2cc;strokeColor=#d6b656;" parent="1" vertex="1">
          <mxGeometry x="510" y="260" width="190" height="60" as="geometry" />
        </mxCell>
        <mxCell id="eaeX9_OGXIEofIeABzlW-33" value="Depth Stencil Attachment" style="rounded=0;whiteSpace=wrap;html=1;fillColor=#d5e8d4;strokeColor=#82b366;" parent="1" vertex="1">
          <mxGeometry x="260" y="775" width="200" height="30" as="geometry" />
        </mxCell>
        <mxCell id="eaeX9_OGXIEofIeABzlW-34" value="" style="endArrow=classic;startArrow=classic;html=1;rounded=0;exitX=1;exitY=0.5;exitDx=0;exitDy=0;entryX=0;entryY=0.5;entryDx=0;entryDy=0;" parent="1" source="eaeX9_OGXIEofIeABzlW-5" target="eaeX9_OGXIEofIeABzlW-33" edge="1">
          <mxGeometry width="50" height="50" relative="1" as="geometry">
            <mxPoint x="370" y="740" as="sourcePoint" />
            <mxPoint x="420" y="690" as="targetPoint" />
          </mxGeometry>
        </mxCell>
        <mxCell id="eaeX9_OGXIEofIeABzlW-35" value="" style="endArrow=classic;startArrow=classic;html=1;rounded=0;entryX=0;entryY=0.5;entryDx=0;entryDy=0;exitX=1;exitY=0.5;exitDx=0;exitDy=0;" parent="1" source="eaeX9_OGXIEofIeABzlW-21" target="eaeX9_OGXIEofIeABzlW-16" edge="1">
          <mxGeometry width="50" height="50" relative="1" as="geometry">
            <mxPoint x="370" y="670" as="sourcePoint" />
            <mxPoint x="420" y="620" as="targetPoint" />
          </mxGeometry>
        </mxCell>
        <mxCell id="eaeX9_OGXIEofIeABzlW-36" value="Color Attachments" style="rounded=0;whiteSpace=wrap;html=1;fillColor=#d5e8d4;strokeColor=#82b366;" parent="1" vertex="1">
          <mxGeometry x="260" y="875" width="200" height="30" as="geometry" />
        </mxCell>
        <mxCell id="eaeX9_OGXIEofIeABzlW-37" value="" style="endArrow=classic;startArrow=classic;html=1;rounded=0;exitX=1;exitY=0.5;exitDx=0;exitDy=0;entryX=0;entryY=0.5;entryDx=0;entryDy=0;" parent="1" source="eaeX9_OGXIEofIeABzlW-6" target="eaeX9_OGXIEofIeABzlW-36" edge="1">
          <mxGeometry width="50" height="50" relative="1" as="geometry">
            <mxPoint x="370" y="670" as="sourcePoint" />
            <mxPoint x="420" y="620" as="targetPoint" />
          </mxGeometry>
        </mxCell>
        <mxCell id="eaeX9_OGXIEofIeABzlW-38" value="Read Buffer" style="rounded=0;whiteSpace=wrap;html=1;fillColor=#d5e8d4;strokeColor=#82b366;" parent="1" vertex="1">
          <mxGeometry x="270" y="525" width="180" height="30" as="geometry" />
        </mxCell>
        <mxCell id="eaeX9_OGXIEofIeABzlW-39" value="Read Write Buffer" style="rounded=0;whiteSpace=wrap;html=1;fillColor=#d5e8d4;strokeColor=#82b366;" parent="1" vertex="1">
          <mxGeometry x="270" y="570" width="180" height="30" as="geometry" />
        </mxCell>
        <mxCell id="eaeX9_OGXIEofIeABzlW-40" value="Read Texture" style="rounded=0;whiteSpace=wrap;html=1;fillColor=#d5e8d4;strokeColor=#82b366;" parent="1" vertex="1">
          <mxGeometry x="270" y="615" width="180" height="30" as="geometry" />
        </mxCell>
        <mxCell id="eaeX9_OGXIEofIeABzlW-41" value="Read Write Texture" style="rounded=0;whiteSpace=wrap;html=1;fillColor=#d5e8d4;strokeColor=#82b366;" parent="1" vertex="1">
          <mxGeometry x="270" y="660" width="180" height="30" as="geometry" />
        </mxCell>
        <mxCell id="eaeX9_OGXIEofIeABzlW-42" value="Sampler" style="rounded=0;whiteSpace=wrap;html=1;fillColor=#d5e8d4;strokeColor=#82b366;" parent="1" vertex="1">
          <mxGeometry x="270" y="700" width="180" height="30" as="geometry" />
        </mxCell>
        <mxCell id="eaeX9_OGXIEofIeABzlW-47" value="" style="rounded=0;whiteSpace=wrap;html=1;fillColor=none;dashed=1;" parent="1" vertex="1">
          <mxGeometry x="500" y="650" width="210" height="270" as="geometry" />
        </mxCell>
        <mxCell id="eaeX9_OGXIEofIeABzlW-48" value="Legend" style="text;html=1;align=center;verticalAlign=middle;resizable=0;points=[];autosize=1;strokeColor=none;fillColor=none;fontSize=14;" parent="1" vertex="1">
          <mxGeometry x="570" y="655" width="70" height="30" as="geometry" />
        </mxCell>
        <mxCell id="eaeX9_OGXIEofIeABzlW-49" value="Fixed Function Stage" style="rounded=1;whiteSpace=wrap;html=1;fillColor=#fff2cc;strokeColor=#d6b656;" parent="1" vertex="1">
          <mxGeometry x="510" y="690" width="190" height="60" as="geometry" />
        </mxCell>
        <mxCell id="eaeX9_OGXIEofIeABzlW-50" value="Shader Stage" style="rounded=1;whiteSpace=wrap;html=1;fillColor=#dae8fc;strokeColor=#6c8ebf;" parent="1" vertex="1">
          <mxGeometry x="510" y="770" width="190" height="60" as="geometry" />
        </mxCell>
        <mxCell id="eaeX9_OGXIEofIeABzlW-51" value="Resource" style="rounded=0;whiteSpace=wrap;html=1;fillColor=#d5e8d4;strokeColor=#82b366;" parent="1" vertex="1">
          <mxGeometry x="510" y="850" width="190" height="60" as="geometry" />
        </mxCell>
        <mxCell id="eaeX9_OGXIEofIeABzlW-52" value="Graphics" style="text;html=1;align=center;verticalAlign=middle;resizable=0;points=[];autosize=1;strokeColor=none;fillColor=none;fontSize=18;" parent="1" vertex="1">
          <mxGeometry x="65" y="210" width="100" height="40" as="geometry" />
        </mxCell>
        <mxCell id="eaeX9_OGXIEofIeABzlW-53" value="Compute" style="text;html=1;align=center;verticalAlign=middle;resizable=0;points=[];autosize=1;strokeColor=none;fillColor=none;fontSize=18;" parent="1" vertex="1">
          <mxGeometry x="555" y="210" width="100" height="40" as="geometry" />
        </mxCell>
      </root>
    </mxGraphModel>
  </diagram>
</mxfile>
